<?xml version="1.0" standalone="no"?><!DOCTYPE svg PUBLIC "-//W3C//DTD SVG 1.1//EN" "http://www.w3.org/Graphics/SVG/1.1/DTD/svg11.dtd"><svg t="1554273820771" class="icon" style="" viewBox="0 0 1024 1024" version="1.1" xmlns="http://www.w3.org/2000/svg" p-id="1834" xmlns:xlink="http://www.w3.org/1999/xlink" width="200" height="200"><defs><style type="text/css"></style></defs><path d="M469.3 640v85.3c-121.1 0-226.6-86-250.8-204.5l83.6-17.1c16.2 79 86.5 136.3 167.2 136.3z m456.9 286.2c-8.3 8.3-19.2 12.5-30.2 12.5s-21.8-4.2-30.2-12.5L708.7 769.1c-65.7 52.6-148.9 84.3-239.4 84.3-211.8 0-384-172.2-384-384s172.2-384 384-384 384 172.2 384 384c0 90.5-31.7 173.7-84.3 239.4l157.1 157.1c16.7 16.6 16.7 43.6 0.1 60.3zM768 469.3c0-164.7-134-298.7-298.7-298.7s-298.7 134-298.7 298.7S304.7 768 469.3 768 768 634 768 469.3z" p-id="1835"></path></svg>