<?xml version="1.0" standalone="no"?><!DOCTYPE svg PUBLIC "-//W3C//DTD SVG 1.1//EN" "http://www.w3.org/Graphics/SVG/1.1/DTD/svg11.dtd"><svg t="1554273828683" class="icon" style="" viewBox="0 0 1024 1024" version="1.1" xmlns="http://www.w3.org/2000/svg" p-id="1950" xmlns:xlink="http://www.w3.org/1999/xlink" width="200" height="200"><defs><style type="text/css"></style></defs><path d="M514.2 902.9l-1.4-1.3-32.5-28.1-321-321c-98.5-98.5-98.5-258.9 0-357.4 97-97 253.8-98.5 352.6-4.7 98.9-93.9 255.7-92.3 352.6 4.7 98.5 98.5 98.5 258.9 0 357.4L514.2 902.9z m-3.8-120.1l1.7 1.5 292.2-292.2c65.3-65.3 65.3-171.5 0-236.8-65.3-65.2-171.5-65.2-236.8 0L512 310.8l-55.5-55.4c-65.3-65.3-171.5-65.3-236.8 0-65.3 65.3-65.3 171.5 0 236.8l290.7 290.6z" p-id="1951"></path><path d="M226.588 407.126l60.316-60.316 170.694 170.694-60.316 60.316z" p-id="1952"></path></svg>