<?xml version="1.0" standalone="no"?><!DOCTYPE svg PUBLIC "-//W3C//DTD SVG 1.1//EN" "http://www.w3.org/Graphics/SVG/1.1/DTD/svg11.dtd"><svg t="1545182371704" class="icon" style="" viewBox="0 0 1024 1024" version="1.1" xmlns="http://www.w3.org/2000/svg" p-id="6688" xmlns:xlink="http://www.w3.org/1999/xlink" width="25" height="25"><defs><style type="text/css"></style></defs><path d="M512.09064336 343.3563292a93.35895381 93.35895381 0 1 1-66.36359356 27.55776358A93.35895381 93.35895381 0 0 1 512.09064336 343.3563292m0-56.24033379a150.16169092 150.16169092 0 1 0 106.29423106 43.86746074A149.03688428 149.03688428 0 0 0 512.09064336 287.11599541z" fill="#d4237a" p-id="6689"></path><path d="M769.67137197 171.26090791a358.25092558 358.25092558 0 0 0-515.16145635 0 379.05984932 379.05984932 0 0 0 0 526.97192696L512.09064336 962l257.58072861-263.76716513a379.05984932 379.05984932 0 0 0 1e-8-526.97192696z m-38.80582998 489.85330693l-218.77489863 224.96133428-218.77489776-224.96133428a321.13230557 321.13230557 0 0 1 0-447.11065283 304.82260839 304.82260839 0 0 1 437.5497964 0 321.13230557 321.13230557 0 0 1 0 447.11065283z" fill="#d4237a" p-id="6690"></path></svg>