<?xml version="1.0" standalone="no"?><!DOCTYPE svg PUBLIC "-//W3C//DTD SVG 1.1//EN" "http://www.w3.org/Graphics/SVG/1.1/DTD/svg11.dtd"><svg t="1545180593234" class="icon" style="" viewBox="0 0 1171 1024" version="1.1" xmlns="http://www.w3.org/2000/svg" p-id="2208" xmlns:xlink="http://www.w3.org/1999/xlink" width="28.5888671875" height="25"><defs><style type="text/css"></style></defs><path d="M585.142857 870.253714q-11.410286 0-53.174857-41.984t-41.691429-53.394286q0-18.285714 35.693714-30.866286t59.172571-12.580571 59.172571 12.580571 35.693714 30.866286q0 11.410286-41.691429 53.394286t-53.174857 41.984zM739.401143 715.410286q-1.170286 0-22.820571-14.262857t-58.002286-28.598857-73.435429-14.262857-73.435429 14.262857-57.709714 28.598857-23.113143 14.262857q-10.313143 0-53.394286-42.861714t-43.154286-53.174857q0-7.460571 5.705143-13.165714 44.544-44.032 111.981714-69.12t133.12-25.161143 133.12 25.161143 111.981714 69.12q5.705143 5.705143 5.705143 13.165714 0 10.313143-43.154286 53.174857t-53.394286 42.861714zM895.414857 559.981714q-6.290286 0-13.165714-4.534857-77.677714-59.977143-144.018286-88.283429t-153.161143-28.306286q-48.566857 0-97.426286 12.580571t-85.138286 30.281143-64.877714 35.401143-45.129143 30.281143-17.700571 12.580571q-9.728 0-52.589714-42.861714t-42.861714-53.174857q0-6.875429 5.705143-12.580571 75.410286-75.410286 182.857143-117.174857t217.161143-41.691429 217.161143 41.691429 182.857143 117.174857q5.705143 5.705143 5.705143 12.580571 0 10.313143-42.861714 53.174857t-52.589714 42.861714zM1050.258286 405.138286q-6.290286 0-12.580571-5.12-102.253714-89.746286-212.260571-135.168t-240.274286-45.421714-240.274286 45.421714-212.260571 135.168q-6.290286 5.12-12.580571 5.12-9.728 0-52.882286-42.861714t-43.154286-53.174857q0-7.460571 5.705143-13.165714 106.861714-106.276571 254.317714-164.571429t301.129143-58.294857 301.129143 58.294857 254.317714 164.571429q5.705143 5.705143 5.705143 13.165714 0 10.313143-43.154286 53.174857t-52.882286 42.861714z" p-id="2209" fill="#ccc"></path></svg>