<?xml version="1.0" standalone="no"?><!DOCTYPE svg PUBLIC "-//W3C//DTD SVG 1.1//EN" "http://www.w3.org/Graphics/SVG/1.1/DTD/svg11.dtd"><svg t="1541126470514" class="icon" style="" viewBox="0 0 1024 1024" version="1.1" xmlns="http://www.w3.org/2000/svg" p-id="545" xmlns:xlink="http://www.w3.org/1999/xlink" width="25" height="25"><defs><style type="text/css"></style></defs><path d="M843.594667 512l28.644266 265.909333c6.309333 58.570667-36.0576 111.168-94.629333 117.477334a106.666667 106.666667 0 0 1-11.424 0.613333H257.066667c-58.909867 0-106.666667-47.7568-106.666667-106.666667a106.666667 106.666667 0 0 1 0.613333-11.424L179.658667 512H85.333333c-47.128533 0-85.333333-38.2048-85.333333-85.333333V320c0-106.0384 85.9616-192 192-192h640c106.0384 0 192 85.9616 192 192v106.666667c0 47.128533-38.2048 85.333333-85.333333 85.333333h-95.072z m-657.0432-64l5.482666-50.890667c5.834667-54.176 51.563733-95.242667 106.052267-95.242666h427.079467c54.488533 0 100.2176 41.066667 106.053333 95.242666l5.482667 50.890667H906.666667c29.454933 0 53.333333-23.8784 53.333333-53.333333v-74.666667c0-70.692267-57.307733-128-128-128H192c-70.692267 0-128 57.307733-128 128v74.666667c0 29.454933 23.8784 53.333333 53.333333 53.333333h69.218134z m128.416-82.133333c-27.5712 0-50.5984 21.015467-53.111467 48.471466l-32.903467 359.466667a53.333333 53.333333 0 0 0-0.221866 4.861867c0 29.454933 23.8784 53.333333 53.333333 53.333333h459.124267a53.333333 53.333333 0 0 0 4.8608-0.221867c29.333333-2.6848 50.935467-28.64 48.250666-57.973333l-32.903466-359.466667C758.8832 386.882133 735.856 365.866667 708.2848 365.866667H314.967467zM512.533333 768C419.160533 768 343.466667 692.306133 343.466667 598.933333S419.160533 429.866667 512.533333 429.866667 681.6 505.560533 681.6 598.933333 605.906133 768 512.533333 768z m0-64c58.026667 0 105.066667-47.04 105.066667-105.066667S570.56 493.866667 512.533333 493.866667 407.466667 540.906667 407.466667 598.933333s47.04 105.066667 105.066666 105.066667z" fill="#0B8E00" p-id="546"></path></svg>