<?xml version="1.0" standalone="no"?><!DOCTYPE svg PUBLIC "-//W3C//DTD SVG 1.1//EN" "http://www.w3.org/Graphics/SVG/1.1/DTD/svg11.dtd"><svg t="1545182671900" class="icon" style="" viewBox="0 0 1024 1024" version="1.1" xmlns="http://www.w3.org/2000/svg" p-id="10721" xmlns:xlink="http://www.w3.org/1999/xlink" width="25" height="25"><defs><style type="text/css"></style></defs><path d="M417.260308 833.536c-224.157538 0-406.528-182.370462-406.528-406.528S193.122462 20.499692 417.260308 20.499692s406.528 182.370462 406.528 406.528S641.417846 833.536 417.260308 833.536zM417.260308 138.653538c-158.995692 0-288.374154 129.358769-288.374154 288.374154s129.358769 288.374154 288.374154 288.374154 288.374154-129.358769 288.374154-288.374154S576.275692 138.653538 417.260308 138.653538z" p-id="10722" fill="#CC4a4a"></path><path d="M954.171077 1003.500308c-15.123692 0-30.227692-5.769846-41.767385-17.309538L642.973538 716.760615c-23.079385-23.079385-23.079385-60.475077 0-83.534769 23.079385-23.079385 60.455385-23.079385 83.534769 0l269.430154 269.449846c23.079385 23.079385 23.079385 60.475077 0 83.534769C984.398769 997.750154 969.294769 1003.500308 954.171077 1003.500308z" p-id="10723" fill="#CC4a4a"></path></svg>