<?xml version="1.0" standalone="no"?><!DOCTYPE svg PUBLIC "-//W3C//DTD SVG 1.1//EN" "http://www.w3.org/Graphics/SVG/1.1/DTD/svg11.dtd"><svg t="1545718966313" class="icon" style="" viewBox="0 0 1024 1024" version="1.1" xmlns="http://www.w3.org/2000/svg" p-id="8010" xmlns:xlink="http://www.w3.org/1999/xlink" width="200" height="200" fill="#fff"><defs><style type="text/css"></style></defs><path d="M641.2288 752.7424h-63.488c24.2688-48.298667 73.181867-81.6128 130.4576-81.6128 76.936533 0 139.502933 59.8016 146.363733 135.816533h26.794667c-6.8608-90.9312-81.3056-162.884267-173.1584-162.884266-62.5664 0-116.804267 33.621333-147.592533 83.456v-56.046934h-26.794667v108.3392h107.4176v-27.067733zM775.7824 888.797867h63.249067c-24.302933 47.991467-73.216 81.3056-130.491734 81.3056-76.9024 0-139.502933-59.8016-146.363733-135.816534h-26.760533c6.8608 90.965333 81.3056 162.884267 173.124266 162.884267 62.600533 0 116.804267-33.348267 147.626667-83.456v56.354133h27.101867v-108.373333h-107.451734v27.101867z" p-id="8011"></path><path d="M512 26.794667L75.400533 349.422933v488.004267c0 39.560533 35.498667 71.645867 79.394134 71.645867h334.165333v-45.806934h-334.165333c-18.056533 0-33.348267-11.844267-33.348267-25.838933V372.770133L512 84.104533l390.519467 288.3584v296.448h46.114133v-319.522133L512 26.794667z" p-id="8012"></path><path d="M672.3584 416.392533a160.392533 160.392533 0 0 0-320.750933 0c0 88.746667 71.953067 160.699733 160.392533 160.699734a160.3584 160.3584 0 0 0 160.3584-160.699734zM512 531.285333a114.756267 114.756267 0 0 1-114.8928-114.5856c0-63.214933 51.370667-114.5856 114.8928-114.5856s115.234133 51.063467 114.8928 114.5856A114.688 114.688 0 0 1 512 531.285333z" p-id="8013"></path></svg>