<?xml version="1.0" standalone="no"?><!DOCTYPE svg PUBLIC "-//W3C//DTD SVG 1.1//EN" "http://www.w3.org/Graphics/SVG/1.1/DTD/svg11.dtd"><svg t="1541754299221" class="icon" style="" viewBox="0 0 1146 1024" version="1.1" xmlns="http://www.w3.org/2000/svg" p-id="1825" xmlns:xlink="http://www.w3.org/1999/xlink" width="27.978515625" height="25"><defs><style type="text/css"></style></defs><path d="M847.509553 228.813419h21.649989c21.959988 0 39.279979-17.629991 39.279979-34.949981v-21.959989l-96.188949-47.939974v69.899963c0.31 21.649989 13.299993 34.949982 35.259981 34.949981z" fill="#FE0638" p-id="1826"></path><path d="M1070.199436 364.283348c21.959988 8.659995 43.609977 4.329998 52.269972-17.319991l8.659996-12.990993c8.659995-21.959988 4.329998-43.609977-17.319991-52.269973L908.439521 176.234447v21.959988c0 21.958988-17.319991 39.279979-39.279979 34.949982h-21.649989c-21.959988 0-39.279979-17.320991-34.949981-39.279979v-69.899963L580.900694 6.123537c-4.329998 0-4.329998-4.329998-8.659996-4.329998-8.659995-4.329998-21.959988 0-30.619984 4.329998L21.702989 281.393392c-21.959988 8.659995-26.289986 34.949982-17.319991 52.269972l8.659995 12.989993c8.659995 21.959988 34.949982 26.289986 52.269973 17.319991l493.628739-261.969862 511.257731 262.279862z" fill="#FE0638" p-id="1827"></path><path d="M821.219567 718.111161L585.230691 482.122286c-12.989993-17.319991-8.659995-65.569965 12.989994-87.219954 21.959988-21.959988 69.899963-21.959988 91.859951-4.329998l17.319991 17.629991c0-4.329998 4.329998-4.329998 4.329998-8.659996l26.289986-26.289986c8.659995-8.659995 21.959988-8.659995 30.619984 0l74.229961 74.229961c8.659995 8.659995 8.659995 21.959988 0 30.619984l-26.289987 26.289986-4.329997 4.329998 118.149937 117.529938c8.659995-4.329998 17.319991-8.659995 26.288986-8.659996v-279.599852L563.579703 141.285465 192.122899 337.993362V967.09003c0 30.619984 26.289986 56.90997 56.90997 56.90997h218.358885V674.501184H703.379629V1024h192.069899c30.619984 0 56.90897-26.289986 56.90897-56.90997-30.619984-8.659995-61.239968-21.959988-87.219954-47.939975-52.579972-48.248975-70.209963-144.437924-43.919977-201.038894z" fill="#FE0638" p-id="1828"></path><path d="M812.559572 455.8333l-52.579973-52.269973c-4.329998-4.329998-17.319991-4.329998-21.958988 0l-8.659996 8.659996c-4.329998 4.329998-4.329998 17.319991 0 21.959988l52.269973 52.269972c4.329998 4.329998 17.629991 4.329998 21.959988 0l8.969996-8.659995c8.659995-8.659995 8.659995-17.629991 0-21.959988z" fill="#FE0638" p-id="1829"></path><path d="M921.739514 656.872194l-240.318873-240.319874c-17.629991-17.319991-47.939975-17.319991-65.569966 0-17.629991 17.320991-17.629991 47.939975 0 65.569966l240.319874 240.319873C825.549565 779.350129 834.20956 853.58009 882.459535 901.520065c61.239968 61.239968 157.119917 61.239968 218.359884 0 61.238968-61.239968 61.238968-157.119917 0-218.359885-48.249975-43.609977-122.479935-52.578972-179.079905-26.289986z m113.50994 183.409903c-26.289986 26.288986-65.569965 26.288986-87.219954 0-26.289986-26.289986-26.289986-65.569965 0-87.219954 26.289986-26.289986 65.569965-26.289986 87.219954 0 26.289986 21.649989 26.289986 60.929968 0 87.219954zM908.439521 41.074518c0-21.959988-17.319991-39.279979-34.949982-39.279979h-21.959988c-21.958988 0-39.278979 17.319991-39.278979 34.949982v82.889956l96.189949 47.939975v-126.499934z" fill="#FE0638" p-id="1830"></path></svg>