<?xml version="1.0" standalone="no"?><!DOCTYPE svg PUBLIC "-//W3C//DTD SVG 1.1//EN" "http://www.w3.org/Graphics/SVG/1.1/DTD/svg11.dtd"><svg t="1545181685901" class="icon" style="" viewBox="0 0 1024 1024" version="1.1" xmlns="http://www.w3.org/2000/svg" p-id="3706" xmlns:xlink="http://www.w3.org/1999/xlink" width="25" height="25"><defs><style type="text/css"></style></defs><path d="M733.866667 691.2l-11.377778-8.533333c-42.666667-36.977778-79.644444-42.666667-122.311111-14.222223-51.2 34.133333-56.888889 36.977778-93.866667-8.533333-54.044444-65.422222-102.4-133.688889-153.6-207.644444-8.533333-14.222222-11.377778-25.6-11.377778-36.977778 2.844444-11.377778 11.377778-22.755556 25.6-34.133333 54.044444-36.977778 54.044444-73.955556 34.133334-122.311112-5.688889-14.222222-11.377778-28.444444-19.911111-39.822222l-2.844445-2.844444c-22.755556-34.133333-48.355556-79.644444-108.088889-68.266667-62.577778 11.377778-116.622222 76.8-125.155555 147.911111v5.688889c0 5.688889 2.844444 14.222222 2.844444 19.911111 2.844444 25.6 8.533333 56.888889 17.066667 91.022222 59.733333 182.044444 182.044444 341.333333 341.333333 449.422223 22.755556 14.222222 45.511111 28.444444 71.111111 36.977777 31.288889 11.377778 54.044444 17.066667 76.8 17.066667 42.666667 0 73.955556-22.755556 119.466667-71.111111 5.688889-5.688889 11.377778-14.222222 14.222222-22.755556 22.755556-65.422222-19.911111-102.4-54.044444-130.844444z" fill="#D4237A" p-id="3707"></path><path d="M509.155556 418.133333c28.444444 2.844444 54.044444 17.066667 68.266666 39.822223 17.066667 22.755556 22.755556 54.044444 17.066667 82.488888-5.688889 22.755556 8.533333 45.511111 31.288889 51.2h8.533333c19.911111 0 36.977778-14.222222 42.666667-34.133333 11.377778-54.044444 0-108.088889-34.133334-150.755555-31.288889-39.822222-76.8-68.266667-128-73.955556-22.755556-2.844444-45.511111 14.222222-45.511111 36.977778 0 25.6 17.066667 45.511111 39.822223 48.355555z" fill="#D4237A" p-id="3708"></path><path d="M793.6 318.577778c-54.044444-79.644444-142.222222-128-238.933333-139.377778-22.755556-2.844444-45.511111 14.222222-45.511111 39.822222-2.844444 22.755556 14.222222 45.511111 39.822222 45.511111 71.111111 5.688889 133.688889 42.666667 176.355555 102.4 34.133333 48.355556 48.355556 105.244444 42.666667 164.977778-2.844444 22.755556 14.222222 45.511111 36.977778 45.511111h5.688889c22.755556 0 39.822222-17.066667 42.666666-36.977778 5.688889-79.644444-14.222222-156.444444-59.733333-221.866666z" fill="#D4237A" p-id="3709"></path></svg>