<?xml version="1.0" standalone="no"?><!DOCTYPE svg PUBLIC "-//W3C//DTD SVG 1.1//EN" "http://www.w3.org/Graphics/SVG/1.1/DTD/svg11.dtd"><svg t="1545180813422" class="icon" style="" viewBox="0 0 1026 1024" version="1.1" xmlns="http://www.w3.org/2000/svg" p-id="6119" xmlns:xlink="http://www.w3.org/1999/xlink" width="25.048828125" height="25"><defs><style type="text/css"></style></defs><path d="M955.001795 697.136318c10.494525 2.998436 19.489833 7.496089 29.984358 10.494525 22.488268 7.496089 23.987486 10.494525 25.486704 34.482012v10.494525h-40.478883c-10.494525 0-17.990615 5.996872-19.489833 14.992179 0 8.995307 7.496089 16.491397 17.990615 16.491397h40.478883v76.460112c0 5.996872 1.499218 8.995307 5.996872 13.492961 4.497654 4.497654 7.496089 11.993743 8.995307 17.990615 1.499218 2.998436 0 5.996872 0 10.494525 1.499218 26.985922-10.494525 32.982794-29.984358 34.482011-7.496089 0-14.992179 1.499218-23.987486 2.998436 2.998436-50.973408-11.993743-92.951509-49.47419-125.934303-28.48514-23.987486-61.467933-35.981229-97.449163-34.482011-26.985922 1.499218-52.472626 8.995307-74.960895 25.486704-22.488268 14.992179-40.478883 35.981229-50.973408 62.967151-10.494525 25.486704-13.492961 50.973408-8.995307 79.458549H346.319332c5.996872-55.471062-10.494525-101.946816-53.971844-136.428828-29.984358-23.987486-65.965587-32.982794-104.945252-28.48514-68.964023 7.496089-139.427264 74.960894-122.935867 172.410057-14.992179-2.998436-28.48514-4.497654-43.477319-7.496089-2.998436 0-5.996872-2.998436-7.496089-5.996872-10.494525-10.494525-8.995307-44.976537 1.499218-55.471062 2.998436-2.998436 5.996872-7.496089 5.996871-11.993743 1.499218-14.992179 1.499218-29.984358 2.998436-44.976537 0-7.496089 1.499218-11.993743 10.494525-11.993743 10.494525-1.499218 20.98905-2.998436 31.483576-5.996871 10.494525-1.499218 16.491397-8.995307 14.992179-17.990615-1.499218-8.995307-10.494525-13.492961-19.489833-11.993743-10.494525 1.499218-20.98905 4.497654-31.483575 5.996871-2.998436-10.494525 0-16.491397 10.494525-23.987486 29.984358-19.489833 62.967151-34.482011 97.449163-43.477319 38.979665-10.494525 77.95933-17.990615 116.938995-26.985922 4.497654-1.499218 8.995307-2.998436 11.993743-5.996871 43.477319-37.480447 91.452291-67.464805 143.924917-92.951509 44.976537-22.488268 92.951509-28.48514 142.4257-32.982794 52.472626-2.998436 106.44447 0 158.917096 7.49609 23.987486 2.998436 46.475755 13.492961 67.464805 25.486704 32.982794 19.489833 64.466369 40.478883 95.949945 61.467933 16.491397 11.993743 34.482011 16.491397 53.971844 11.993743 8.995307-2.998436 19.489833-2.998436 28.48514-4.497653 11.993743-1.499218 20.98905 2.998436 22.488268 11.993743 1.499218 10.494525-4.497654 17.990615-16.491397 20.98905-2.998436 0-4.497654 1.499218-7.496089 1.499218 0-1.499218-1.499218-1.499218-1.499218 0z m-334.325589-88.453855c-118.438213-13.492961-217.386594 25.486704-307.339667 101.946816 100.447599 22.488268 199.395979 10.494525 298.34436 5.996872 4.497654-37.480447 5.996872-71.962459 8.995307-107.943688z m32.982793 2.998436c-2.998436 34.482011-4.497654 67.464805-7.496089 101.946816 46.475755-4.497654 91.452291-7.496089 136.428828-11.993743-31.483576-47.974972-71.962459-80.957766-128.932739-89.953073z m-56.970279 170.910839H617.67777c8.995307-1.499218 16.491397-8.995307 14.992179-16.491397 0-7.496089-7.496089-13.492961-16.491397-13.492961h-37.480447c-8.995307 0-16.491397 5.996872-16.491397 14.992179s5.996872 14.992179 16.491397 14.992179h17.990615zM251.868605 5.996872h184.403801c29.984358 0 58.469498 26.985922 59.968715 58.469497v248.87017c0 38.979665 1.499218 79.458548 0 118.438213-1.499218 35.981229-34.482011 61.467933-64.466369 59.968715-22.488268-1.499218-44.976537 0-67.464805 0h-284.851399c-16.491397 0-31.483576-1.499218-46.475754-11.993743C14.992179 464.757545 7.496089 446.766931 7.496089 425.77788V70.463241c0-29.984358 13.492961-55.471062 47.974973-64.466369H251.868605zM74.960894 55.471062c-8.995307 0-14.992179 5.996872-16.491396 14.992179v352.316204c0 34.482011 0-34.482011 0 0V245.871734v176.907711c0 10.494525 0-10.494525 0 0 0 14.992179 0-14.992179 0 0 0 22.488268-1.499218-20.98905 0 0 1.499218 14.992179 7.496089 19.489833 20.98905 19.489832h248.87017c31.483576 0 62.967151 1.499218 94.450727 0 11.993743 0 17.990615-5.996872 17.990614-19.489832-1.499218-32.982794 0-65.965587 0-97.449163v-142.4257V74.960894c0-14.992179-4.497654-19.489833-19.489832-20.98905h-5.996872" p-id="6120" fill="#ccc"></path><path d="M829.067492 1023.965818c-58.469498 0-103.446034-44.976537-103.446034-104.945252 0-56.97028 46.475755-103.446034 103.446034-103.446035 56.97028 0 103.446034 44.976537 104.945253 98.948381 0 62.967151-50.973408 110.942124-104.945253 109.442906z m38.979665-103.446034c0-20.98905-17.990615-38.979665-38.979665-38.979666-20.98905 0-38.979665 17.990615-38.979665 38.979666 0 20.98905 17.990615 38.979665 38.979665 38.979665 19.489833 0 38.979665-17.990615 38.979665-38.979665zM100.447599 919.020566c0-55.471062 46.475755-101.946816 98.94838-103.446035 61.467933-1.499218 107.943688 47.974972 107.943688 103.446035 0 58.469498-44.976537 104.945252-101.946816 104.945252-59.968716 0-104.945252-44.976537-104.945252-104.945252z m103.446034-37.480448c-20.98905 0-38.979665 17.990615-38.979665 38.979666 0 20.98905 17.990615 38.979665 38.979665 38.979665 20.98905 0 38.979665-17.990615 38.979665-38.979665 0-20.98905-17.990615-38.979665-38.979665-38.979666zM140.926482 395.793523V106.44447c2.998436-1.499218 5.996872-1.499218 7.496089-1.499218 38.979665 0 77.95933-1.499218 116.938995 0 40.478883 1.499218 74.960894 14.992179 92.951509 53.971844 26.985922 59.968716 1.499218 133.430392-79.458548 146.923353-20.98905 2.998436-41.978101 1.499218-62.967151 2.998436h-11.993743v86.954638H140.926482z m64.466369-143.924918H254.867041c4.497654 0 7.496089-1.499218 11.993743-1.499218 22.488268-4.497654 35.981229-19.489833 37.480447-40.478883 0-23.987486-11.993743-41.978101-34.482011-44.976536-20.98905-2.998436-41.978101-2.998436-62.967151-2.998436-1.499218 29.984358-1.499218 59.968716-1.499218 89.953073z" p-id="6121" fill="#ccc"></path></svg>