<?xml version="1.0" standalone="no"?><!DOCTYPE svg PUBLIC "-//W3C//DTD SVG 1.1//EN" "http://www.w3.org/Graphics/SVG/1.1/DTD/svg11.dtd"><svg t="1545181861744" class="icon" style="" viewBox="0 0 1024 1024" version="1.1" xmlns="http://www.w3.org/2000/svg" p-id="5377" xmlns:xlink="http://www.w3.org/1999/xlink" width="25" height="25"><defs><style type="text/css"></style></defs><path d="M512 0C229.6 0 0 229.6 0 512c0 282.2 229.6 512 512 512s512-229.8 512-512C1024 229.6 794.4 0 512 0m0 959.2C265.4 959.2 64.8 758.6 64.8 512S265.4 64.8 512 64.8 959.2 265.4 959.2 512 758.6 959.2 512 959.2" p-id="5378" fill="#CC4A4a"></path><path d="M825 525.8c0.6-1.6 0.8-3.2 1.2-5 0.4-1.8 0.8-3.4 1-5.4 0-0.6 0.4-1 0.4-1.6 0-0.6-0.4-1-0.4-1.4 0-1.6-0.6-3.2-0.8-5-0.4-1.8-0.6-3.6-1.2-5.4-0.4-1-0.6-2-1.2-3-0.6-1.6-2-2.8-2.8-4.4-0.6-1-1-2.4-1.8-3.4l-159.6-191c-12.4-15-34.8-17-49.6-4.6-15 12.6-17 34.6-4.4 49.6l111.4 133.4H231.8c-19.4 0-35.2 15.6-35.2 35.2s15.8 35.2 35.2 35.2H716l-110.2 129.4c-12.4 14.8-10.8 37 4 49.6 6.6 5.6 14.6 8.4 22.8 8.4 10 0 20-4.2 26.8-12.4l159.6-187.4c1-1 1.2-2.2 1.8-3.2 1-1.6 2.4-3 3-4.8 0.6-0.8 1-1.8 1.2-2.8" p-id="5379" fill="#CC4A4a"></path></svg>