<?xml version="1.0" standalone="no"?><!DOCTYPE svg PUBLIC "-//W3C//DTD SVG 1.1//EN" "http://www.w3.org/Graphics/SVG/1.1/DTD/svg11.dtd"><svg t="1545182692948" class="icon" style="" viewBox="0 0 1024 1024" version="1.1" xmlns="http://www.w3.org/2000/svg" p-id="11554" xmlns:xlink="http://www.w3.org/1999/xlink" width="25" height="25"><defs><style type="text/css"></style></defs><path d="M536.373571 1024h-47.503305c-1.402598-0.277519-2.796445-0.731301-4.210293-0.806306-29.593309-1.543857-58.889098-5.426628-87.703603-12.293355-119.747082-28.533235-217.44138-91.576372-292.32659-189.175663-56.778951-74.001399-90.192526-157.80723-100.942023-250.537433C2.30016 559.21891 1.277589 547.206825 0.086256 535.21599v-47.503305c0.402528-2.8677 0.891312-5.725398 1.191333-8.604349 1.465102-14.074729 2.261407-28.249466 4.410307-42.216687 17.973751-116.84563 68.721032-217.367624 155.733336-297.318187C294.830514 16.989932 451.923945-24.532957 628.737498 13.763458 731.324636 35.983754 817.965664 88.277392 888.935602 165.549019c74.036401 80.608109 117.758194 175.609719 131.306637 284.338534 1.361345 10.92326 2.45017 21.882773 3.666505 32.824784v57.504001c-0.386277 2.241406-0.818807 4.475311-1.14883 6.725468-3.979027 27.141889-5.924162 54.767561-12.253353 81.34816-30.272106 127.140096-99.344412 228.617157-206.138093 303.909897-69.873612 49.262178-147.74403 78.317949-232.707442 88.173635-11.745817 1.362595-23.524137 2.425169-35.287455 3.626502z m443.895886-512.153136c-0.078755-66.085848-16.068618-133.984323-47.129529-195.4561-52.856178-104.604778-132.152945-182.66646-238.670357-231.588613-112.907856-51.856108-228.092121-55.136336-343.726416-9.05313-93.954037 37.442605-168.909253 99.30816-225.729457 182.700212-54.457539 79.926811-83.143285 168.126698-80.683113 265.483472 1.667616 66.010843 18.54379 128.296427 48.388366 186.98051 41.324125 81.256904 100.576998 146.640203 177.34234 195.758621 76.947854 49.235926 160.887445 75.195232 252.778838 73.120088 50.87979-1.15008 100.03196-11.297036 147.215244-30.18585 108.740066-43.531779 191.939605-116.790626 250.291165-218.056423 39.102721-67.857222 59.416634-141.158572 59.922919-219.702787z" p-id="11555" fill="#CC4a4a"></path><path d="M512.475658 442.725805c9.393154-10.211961 18.40128-19.961389 27.361904-29.75457 56.362672-61.603036 112.734094-123.199822 169.049262-184.844112 7.845546-8.588098 17.544971-8.883118 27.58317-6.107925 9.05438 2.502674 12.290855 9.995696 13.213419 18.597544 0.57754 5.374124-0.816307 10.030698-4.777832 14.22099-62.5181 66.1121-124.928693 132.325457-187.349286 198.527563-1.260088 1.335093-2.355164 2.825197-4.59782 5.540386l8.284326-0.00125c57.91653 0.00125 115.83431-0.047503 173.75084 0.071255 6.209182 0.012501 12.542123 0.390027 18.595044 1.657615 10.689494 2.240156 15.896106 9.410655 15.711093 20.158903-0.170012 9.869437-5.526635 15.848603-16.617406 17.799988-4.89284 0.86006-9.940692 1.165081-14.919788 1.171332-66.042095 0.073755-132.085441 0.048753-198.127536 0.048753h-7.783042v117.85445h7.700536c66.667139 0 133.334277-0.035002 200.001416 0.071255 4.949094 0.007501 10.036948 0.466282 14.814781 1.681367 10.450727 2.658935 15.416073 9.986945 14.909787 20.817699-0.43503 9.303147-5.530385 14.848533-16.178625 16.799919-4.674075 0.85631-9.520662 1.072575-14.289745 1.077575-66.25086 0.066255-132.501719 0.043753-198.752579 0.045003h-8.62935v8.169318c0 57.083972 0.078755 114.167944-0.117508 171.251916-0.021251 6.144178-0.943816 12.492119-2.698938 18.372528-2.408918 8.066811-8.495591 11.63706-17.223699 11.667062-8.76936 0.031252-14.95104-3.395236-17.478716-11.338289-1.856379-5.834156-2.828947-12.197099-2.851448-18.327525-0.207514-57.083972-0.121258-114.167944-0.123759-171.251916 0-8.531844-0.008751-8.541844-8.318079-8.541844-65.834581-0.0025-131.669162 0.038753-197.502492-0.077506-5.575388-0.010001-11.250783-0.593791-16.697412-1.758872-7.940553-1.698868-12.404613-6.834226-13.249671-13.904717-1.176332-9.843185 1.592611-17.474966 9.273145-20.597684 5.992917-2.43642 12.807141-3.957775 19.26384-3.985277 66.042095-0.280019 132.08419-0.171262 198.126286-0.171262h8.586847v-117.85445h-8.009307c-65.417052 0-130.835354 0.058754-196.252405-0.095007-6.18293-0.015001-12.50962-0.758803-18.507538-2.231405-7.889299-1.937635-11.952082-7.290507-12.538372-14.52101-0.813807-10.045699 2.166401-16.991182 10.044448-20.195156 5.085354-2.067644 10.827003-3.508994 16.282383-3.535246 60.206689-0.301271 120.414628-0.270019 180.622568-0.327522 2.400167-0.0025 4.799084 0 8.890619 0-7.76054-8.884368-14.3735-16.507399-21.041464-24.080426-53.669984-60.957991-107.349969-121.908482-161.029955-182.856473-8.76186-9.948192-8.921871-21.292732-0.396277-29.417047 7.76554-7.399265 21.136471-6.500452 29.673314 2.781444 15.646089 17.009934 30.883399 34.397393 46.27822 51.639843 47.984589 53.74624 95.961677 107.49998 143.942516 161.24872 1.103827 1.233836 2.230155 2.45017 4.100285 4.504063z" p-id="11556" fill="#CC4a4a"></path></svg>