<?xml version="1.0" standalone="no"?><!DOCTYPE svg PUBLIC "-//W3C//DTD SVG 1.1//EN" "http://www.w3.org/Graphics/SVG/1.1/DTD/svg11.dtd"><svg t="1545182579449" class="icon" style="" viewBox="0 0 1024 1024" version="1.1" xmlns="http://www.w3.org/2000/svg" p-id="7705" xmlns:xlink="http://www.w3.org/1999/xlink" width="25" height="25"><defs><style type="text/css"></style></defs><path d="M381.858909 705.489455c-163.095273 18.850909-274.432 71.959273-274.432 120.738909 0 64.093091 180.689455 128 404.573091 128 223.883636 0 404.573091-63.906909 404.573091-128 0-48.872727-111.476364-101.934545-274.432-120.738909l-76.706909 91.182545a69.818182 69.818182 0 0 1-106.868364 0l-76.706909-91.182545z m295.889455-42.356364c169.239273 24.389818 285.370182 84.386909 285.370181 163.095273 0 102.958545-202.379636 174.545455-451.118545 174.545454S60.881455 929.186909 60.881455 826.181818c0-78.661818 116.037818-138.658909 285.370181-163.048727l-86.621091-103.005091a69.725091 69.725091 0 0 1-11.962181-20.386909A325.911273 325.911273 0 0 1 742.4 118.830545a325.911273 325.911273 0 0 1 33.931636 420.957091c-2.792727 7.354182-6.795636 14.289455-11.962181 20.386909l-86.621091 103.005091z m-390.516364-148.107636l3.537455 7.028363c0.930909 2.978909 2.420364 5.725091 4.468363 8.192l198.935273 236.450909a23.272727 23.272727 0 0 0 35.653818 0l198.935273-236.450909a23.133091 23.133091 0 0 0 4.468363-8.192l3.537455-6.981818a279.319273 279.319273 0 1 0-449.536 0zM512 512a162.909091 162.909091 0 1 1 0-325.818182 162.909091 162.909091 0 0 1 0 325.818182z m0-46.545455a116.363636 116.363636 0 1 0 0-232.727272 116.363636 116.363636 0 0 0 0 232.727272z" fill="#CC4a4a" p-id="7706"></path></svg>