<?xml version="1.0" standalone="no"?><!DOCTYPE svg PUBLIC "-//W3C//DTD SVG 1.1//EN" "http://www.w3.org/Graphics/SVG/1.1/DTD/svg11.dtd"><svg t="1542618645554" class="icon" style="" viewBox="0 0 1024 1024" version="1.1" xmlns="http://www.w3.org/2000/svg" p-id="1984" xmlns:xlink="http://www.w3.org/1999/xlink" width="25" height="25"><defs><style type="text/css"></style></defs><path d="M528.90624 80.92672c-14.47936-7.12704-21.19168-10.22976-33.81248 0-0.59392 0.49664-67.49696 50.4576-135.23968 101.4272-117.84192 88.7296-145.1776 99.072-152.14592 101.4272H38.66112c-18.9952 0-33.80736 12.57984-33.80736 32.02048v375.56736c0 19.43552 14.8224 31.94368 33.80736 31.94368H224.6144c6.8352 2.52416 41.51808 21.09952 146.06848 108.25216 60.8256 50.68288 115.44064 100.20352 115.98848 100.69504a41.3952 41.3952 0 0 0 27.81696 10.81856 40.81152 40.81152 0 0 0 17.41312-3.88608c14.7456-6.79936 30.81216-29.96224 30.81216-46.82752V114.7392c0.04096-16.45056-19.33312-26.68544-33.80736-33.81248zM512 875.45856c-18.52928-15.98976-80.23552-67.03616-101.4272-84.52608-139.6224-115.57376-157.13792-118.34368-180.56192-118.34368-0.46592 0-0.89088 0.128-1.34656 0.128-0.46592 0-0.89088-0.128-1.35168-0.128l-137.9328 0.01024c-24.09984 0-33.80736-9.06752-33.80736-33.80736V368.31232c0-16.78848 14.01344-33.80736 33.80736-33.80736h101.4272c22.78912 0 33.24416 12.90752 185.95328-101.4272C403.98336 212.6848 488.99584 149.632 512 131.64032v743.81824z m302.8224-363.70944c0-109.06624-57.87136-204.21632-143.88736-255.40096-3.88608-2.10432-13.12768-6.16448-19.54304-6.16448-19.072 0-34.57024 15.82592-34.57024 35.34336 0 13.09184 6.8352 24.78592 17.18272 30.8736 66.47296 38.62016 111.3856 111.60064 111.3856 195.34848 0 85.248-46.42816 159.34464-114.8928 197.4272-9.9584 6.21568-16.54784 17.4848-16.54784 30.2848 0 19.52256 15.488 35.3536 34.57024 35.3536 8.09984 0.08192 17.72544-4.80768 17.72544-4.80768 88.63744-50.51904 148.57216-147.19488 148.57216-258.26304h0.00512z m-39.88992-435.1232c-6.42048-3.93216-12.83072-7.12192-20.60288-7.12192-18.9952 0-34.39616 15.74912-34.39616 35.17952 0 14.00832 8.1408 25.2416 19.61984 31.66208 126.33088 75.3408 211.29728 215.20384 211.29728 375.49568 0 160.16384-84.8384 299.94496-211.04128 375.3216-11.05408 6.13376-20.59776 17.78176-20.59776 32.15872 0 19.43552 15.40608 35.17952 34.40128 35.17952 7.63904 0 13.7216-2.97984 20.34176-6.92224 146.5856-87.43936 245.18656-249.75872 245.18656-435.74272 0.00512-185.6512-98.17088-347.648-244.20864-435.21024z m0 0" p-id="1985" fill="#FE0638"></path></svg>