<?xml version="1.0" standalone="no"?><!DOCTYPE svg PUBLIC "-//W3C//DTD SVG 1.1//EN" "http://www.w3.org/Graphics/SVG/1.1/DTD/svg11.dtd"><svg t="1541988478905" class="icon" style="" viewBox="0 0 1024 1024" version="1.1" xmlns="http://www.w3.org/2000/svg" p-id="1311" xmlns:xlink="http://www.w3.org/1999/xlink" width="25" height="25"><defs><style type="text/css"></style></defs><path d="M512 18.618182C310.923636 18.618182 148.945455 182.458182 148.945455 383.534545c0 130.327273 68.887273 243.898182 169.425454 309.061819 16.756364 11.170909 53.992727 39.098182 102.4 89.367272 61.44 63.301818 91.229091 186.181818 91.229091 186.181819s29.789091-122.88 91.229091-186.181819c48.407273-52.130909 85.643636-78.196364 104.261818-89.367272 3.723636-1.861818 5.585455-3.723636 9.309091-5.585455 96.814545-67.025455 158.254545-176.872727 158.254545-301.614545C875.054545 182.458182 713.076364 18.618182 512 18.618182z" fill="#FE0638" p-id="1312"></path><path d="M428.218182 977.454545a83.781818 46.545455 0 1 0 167.563636 0 83.781818 46.545455 0 1 0-167.563636 0Z" fill="#FE0638" p-id="1313"></path><path d="M502.690909 970.007273c0-1.861818-1.861818-5.585455-1.861818-9.309091-1.861818-7.447273-5.585455-16.756364-7.447273-24.203637-9.309091-26.065455-18.618182-52.130909-31.650909-76.334545-14.894545-29.789091-29.789091-53.992727-48.407273-72.610909-39.098182-40.96-72.610909-70.749091-100.538181-87.505455C204.8 631.156364 137.774545 513.861818 137.774545 383.534545 137.774545 176.872727 305.338182 9.309091 510.138182 9.309091s372.363636 167.563636 372.363636 374.225454c0 124.741818-59.578182 238.312727-160.116363 307.2l-1.861819 1.861819c-1.861818 1.861818-3.723636 1.861818-7.447272 3.723636-1.861818 1.861818-1.861818 1.861818-3.723637 1.861818-27.927273 18.618182-61.44 46.545455-102.4 89.367273-16.756364 18.618182-33.512727 42.821818-48.407272 72.610909-11.170909 24.203636-22.341818 50.269091-31.65091 76.334545-3.723636 9.309091-5.585455 16.756364-7.447272 24.203637 3.723636 3.723636 1.861818 5.585455 1.861818 7.447273 0 11.170909-14.894545 13.032727-18.618182 1.861818z m363.054546-586.472728c0-195.490909-158.254545-355.607273-353.745455-355.607272s-353.745455 158.254545-353.745455 355.607272c0 122.88 63.301818 236.450909 165.701819 301.614546 27.927273 18.618182 63.301818 48.407273 104.261818 91.229091 18.618182 20.48 35.374545 46.545455 50.269091 76.334545 13.032727 24.203636 22.341818 52.130909 31.650909 78.196364 0 1.861818 1.861818 3.723636 1.861818 3.723636 0-1.861818 1.861818-3.723636 1.861818-5.585454 9.309091-26.065455 18.618182-53.992727 31.650909-78.196364 14.894545-29.789091 31.650909-55.854545 50.269091-76.334545 40.96-42.821818 76.334545-72.610909 106.123637-91.229091 1.861818 0 1.861818-1.861818 3.723636-1.861818 1.861818-1.861818 3.723636-1.861818 5.585454-3.723637 96.814545-67.025455 154.530909-175.010909 154.53091-294.167273z" fill="#FE0638" p-id="1314"></path></svg>