<?xml version="1.0" standalone="no"?><!DOCTYPE svg PUBLIC "-//W3C//DTD SVG 1.1//EN" "http://www.w3.org/Graphics/SVG/1.1/DTD/svg11.dtd"><svg t="1545181897766" class="icon" style="" viewBox="0 0 1024 1024" version="1.1" xmlns="http://www.w3.org/2000/svg" p-id="5647" xmlns:xlink="http://www.w3.org/1999/xlink" width="25" height="25"><defs><style type="text/css"></style></defs><path d="M161.28 529.408l196.266667 83.541333-29.610667 67.072-16.042667-6.997333L68.437333 567.893333c-38.741333-16.554667-32.170667-67.157333 8.874667-83.712a3641243.392 3641243.392 0 0 1 692.906667-274.944c102.741333-40.789333 102.741333-40.789333 130.56-51.712a126.890667 126.890667 0 0 1 27.818666-3.925333 50.176 50.176 0 0 1 27.733334 5.973333c13.056 7.850667 19.626667 19.285333 19.626666 32.426667 0 5.973333-1.024 10.666667-3.242666 17.834667l-1.365334 4.352c-1.28 4.864-31.146667 100.693333-94.037333 302.506666l-62.72 201.130667-30.890667 98.986667a60.245333 60.245333 0 0 1-31.402666 39.765333 63.573333 63.573333 0 0 1-51.2 2.816c-9.301333-3.669333-52.309333-21.674667-118.954667-49.664l-82.858667-34.816-37.461333-15.786667-17.066667-7.168 31.573334-65.877333 15.530666 6.4 225.536 94.037333 62.122667-198.826666 90.026667-289.536L453.973333 683.349333a33.877333 33.877333 0 0 0-8.96 20.138667c-0.426667 5.632-3.669333 36.949333-9.045333 87.552l-6.570667 60.928-2.816 26.624-1.877333 17.408-72.448-7.253333 1.877333-17.578667 18.346667-177.834667c2.901333-26.453333 16.042667-50.858667 36.181333-67.669333l371.456-343.637333-618.837333 247.466666z m566.272 261.376a7.509333 7.509333 0 0 0-0.512-0.256l0.512 0.256z" fill="#CC4A4a" p-id="5648"></path></svg>