<?xml version="1.0" standalone="no"?><!DOCTYPE svg PUBLIC "-//W3C//DTD SVG 1.1//EN" "http://www.w3.org/Graphics/SVG/1.1/DTD/svg11.dtd"><svg t="1541128967750" class="icon" style="" viewBox="0 0 1024 1024" version="1.1" xmlns="http://www.w3.org/2000/svg" p-id="2086" xmlns:xlink="http://www.w3.org/1999/xlink" width="25" height="25"><defs><style type="text/css"></style></defs><path d="M511.658667 234.666667a96 96 0 0 1 95.872 95.829333 95.957333 95.957333 0 0 1-95.872 95.914667 96 96 0 0 1-95.872-95.914667A95.957333 95.957333 0 0 1 511.658667 234.666667z m0-63.914667a159.786667 159.786667 0 1 0 0 319.573333 159.786667 159.786667 0 0 0 0-319.573333z m0 853.034667c-286.848 0-511.658667-112.469333-511.658667-256 0-54.741333 31.872-106.410667 92.330667-149.290667 19.456-13.824 41.813333-26.624 66.645333-38.144a31.957333 31.957333 0 1 1 27.093333 57.941333 371.285333 371.285333 0 0 0-56.704 32.341334c-29.824 21.12-65.365333 55.210667-65.365333 97.024 0 90.88 183.893333 192 447.786667 192 263.850667 0 447.744-101.248 447.744-192 0-42.069333-35.754667-76.117333-65.706667-97.28a370.218667 370.218667 0 0 0-55.424-31.744 31.914667 31.914667 0 1 1 27.221333-57.813334c24.106667 11.306667 46.037333 23.893333 65.109334 37.333334 60.714667 42.88 92.8 94.634667 92.8 149.504-0.213333 143.658667-225.024 256.128-511.872 256.128z" p-id="2087" fill="#0B8E00"></path><path d="M511.658667 64.213333a255.957333 255.957333 0 0 1 255.658666 255.658667c0 79.232-99.413333 268.928-255.658666 489.173333C355.541333 588.8 256 398.933333 256 319.872a255.957333 255.957333 0 0 1 255.658667-255.658667z m0-63.872a319.573333 319.573333 0 0 0-319.573334 319.573334c0 144.426667 214.186667 452.992 291.925334 560.213333 6.826667 9.472 17.237333 14.165333 27.648 14.165333s20.778667-4.693333 27.648-14.165333c77.738667-107.221333 291.882667-415.786667 291.882666-560.213333a319.573333 319.573333 0 0 0-319.530666-319.573334z" p-id="2088" fill="#0B8E00"></path></svg>