<?xml version="1.0" standalone="no"?><!DOCTYPE svg PUBLIC "-//W3C//DTD SVG 1.1//EN" "http://www.w3.org/Graphics/SVG/1.1/DTD/svg11.dtd"><svg t="1545180771113" class="icon" style="" viewBox="0 0 1024 1024" version="1.1" xmlns="http://www.w3.org/2000/svg" p-id="5313" xmlns:xlink="http://www.w3.org/1999/xlink" width="25" height="25"><defs><style type="text/css"></style></defs><path d="M153.8048 440.32c52.224-178.2784 166.6048-305.4592 375.7056-323.584 14.4384-1.2288 34.6112-0.1024 50.9952-3.2768 14.1312-2.7648 31.4368-13.0048 47.7184-19.6608 66.2528-27.136 212.6848-74.752 286.6176-16.2816 64.1024 50.7904 52.3264 174.3872 12.6976 254.976 31.6416 63.6928 54.9888 152.3712 41.3696 251.6992-185.7536 7.5776-402.3296 1.024-582.7584 3.2768 6.0416 95.9488 66.4576 169.3696 156.0576 179.712 87.552 10.1376 148.0704-39.2192 187.904-94.72h222.9248c-57.9584 165.888-205.1072 294.5024-433.0496 277.8112-51.8144-3.8912-92.2624-18.944-137.0112-36.0448-74.6496 40.7552-239.9232 101.2736-305.664 16.2816-49.9712-64.4096-17.8176-181.76 9.5232-258.1504C142.336 517.632 247.9104 364.1344 351.232 276.992c0.6144-2.6624 3.1744-3.2768 3.1744-6.5536-81.6128 41.472-136.6016 110.2848-200.6016 169.8816z m783.36-241.7664c-3.072-111.3088-146.944-100.352-222.9248-55.6032 84.8896 33.8944 146.7392 91.2384 197.4272 160.1536 11.0592-35.0208 26.624-64 25.4976-104.5504z m-550.912 271.2576h353.4848c-10.24-227.328-342.4256-208.9984-353.4848 0z m-261.12 398.848c17.7152 100.6592 159.0272 71.3728 222.9248 26.2144C264.192 847.872 211.968 768.6144 169.6768 679.0144c-19.5584 48.4352-56.32 123.0848-44.544 189.6448z m0 0" fill="#ccc" p-id="5314"></path></svg>