<?xml version="1.0" standalone="no"?><!DOCTYPE svg PUBLIC "-//W3C//DTD SVG 1.1//EN" "http://www.w3.org/Graphics/SVG/1.1/DTD/svg11.dtd"><svg t="1541048946973" class="icon" style="" viewBox="0 0 1025 1024" version="1.1" xmlns="http://www.w3.org/2000/svg" p-id="2084" xmlns:xlink="http://www.w3.org/1999/xlink" width="200.1953125" height="200"><defs><style type="text/css"></style></defs><path d="M 1019.33 996.672 L 737.312 714.656 c -0.384 -0.384 -0.832 -0.512 -1.216 -0.8 c 70.464 -75.84 113.92 -177.184 113.92 -288.864 C 850.016 190.272 659.712 0 424.992 0 S 0 190.272 0 424.992 s 190.272 424.992 424.992 424.992 c 111.712 0 213.024 -43.424 288.864 -113.92 c 0.32 0.384 0.448 0.832 0.8 1.216 l 282.016 282.016 c 3.136 3.136 7.232 4.704 11.328 4.704 s 8.192 -1.568 11.328 -4.672 c 6.24 -6.272 6.24 -16.384 0 -22.656 Z M 424.992 818.016 C 208.288 818.016 32 641.696 32 424.992 S 208.288 32 424.992 32 c 216.672 0 392.992 176.288 392.992 392.992 c 0.032 216.704 -176.288 393.024 -392.992 393.024 Z" fill="#CC4a4a" p-id="2085"></path></svg>