<?xml version="1.0" standalone="no"?><!DOCTYPE svg PUBLIC "-//W3C//DTD SVG 1.1//EN" "http://www.w3.org/Graphics/SVG/1.1/DTD/svg11.dtd"><svg t="1545181818768" class="icon" style="" viewBox="0 0 1024 1024" version="1.1" xmlns="http://www.w3.org/2000/svg" p-id="4560" xmlns:xlink="http://www.w3.org/1999/xlink" width="25" height="25"><defs><style type="text/css"></style></defs><path d="M857.941194 232.858127a380.381613 380.381613 0 0 0-80.452213-121.173252A373.930417 373.930417 0 0 0 658.158927 29.969729 368.264288 368.264288 0 0 0 512.000091 0.000683C461.312125 0.000683 412.160158 10.070009 365.841255 29.969729a373.896284 373.896284 0 0 0-119.330054 81.715146 380.34748 380.34748 0 0 0-80.452213 121.173252A383.999744 383.999744 0 0 0 136.533675 381.269762c0 62.907691 19.319454 135.850576 57.412228 216.746522 29.934913 63.556224 71.577552 132.437245 123.733251 204.66333 88.473541 122.470318 175.47935 211.216926 179.165747 214.937457a21.299186 21.299186 0 0 0 30.958913-0.682666 2629.015847 2629.015847 0 0 0 178.687881-226.781716c52.053299-74.513017 93.593538-143.701238 123.494317-205.789729C868.11292 505.173679 887.466507 436.804658 887.466507 381.269762c0-51.473032-9.89866-101.375932-29.525313-148.411635z m-349.968834 321.36512c-82.807411 0-150.186567-68.437288-150.186566-152.507632 0-84.104477 67.379155-152.507632 150.186566-152.507632s150.186567 68.403154 150.186567 152.507632c0 84.070344-67.379155 152.507632-150.186567 152.507632z" fill="#D4237A" p-id="4561"></path></svg>