<?xml version="1.0" standalone="no"?><!DOCTYPE svg PUBLIC "-//W3C//DTD SVG 1.1//EN" "http://www.w3.org/Graphics/SVG/1.1/DTD/svg11.dtd"><svg t="1545718933265" class="icon" style="" viewBox="0 0 1024 1024" version="1.1" xmlns="http://www.w3.org/2000/svg" p-id="7707" xmlns:xlink="http://www.w3.org/1999/xlink" width="200" height="200"><defs><style type="text/css"></style></defs><path d="M919.324444 36.408889h-819.2c-25.031111 0-45.511111 20.48-45.511111 45.511111v841.955556c0 25.031111 20.48 45.511111 45.511111 45.511111h250.311112v-68.266667h-204.8c-11.377778 0-22.755556-11.377778-22.755556-22.755556v-750.933333c0-11.377778 11.377778-22.755556 22.755556-22.755555h728.177777c11.377778 0 22.755556 11.377778 22.755556 22.755555v250.311111h68.266667v-295.822222c0-25.031111-20.48-45.511111-45.511112-45.511111z" fill="#fff" p-id="7708"></path><path d="M748.657778 537.031111h-102.4v68.266667h102.4c81.92 0 147.911111 65.991111 147.911111 147.911111s-65.991111 147.911111-147.911111 147.911111H441.457778v68.266667h307.2c118.328889 0 216.177778-97.848889 216.177778-216.177778s-95.573333-216.177778-216.177778-216.177778z" fill="#fff" p-id="7709"></path><path d="M558.876444 571.983644l144.816356-144.816355 48.264533 48.264533-144.816355 144.816356z" fill="#fff" p-id="7710"></path><path d="M607.960178 522.399289l144.816355 144.816355-48.264533 48.287289-144.816356-144.816355z" fill="#fff" p-id="7711"></path></svg>