<?xml version="1.0" standalone="no"?><!DOCTYPE svg PUBLIC "-//W3C//DTD SVG 1.1//EN" "http://www.w3.org/Graphics/SVG/1.1/DTD/svg11.dtd"><svg t="1543459367662" class="icon" style="" viewBox="0 0 1024 1024" version="1.1" xmlns="http://www.w3.org/2000/svg" p-id="1804" xmlns:xlink="http://www.w3.org/1999/xlink" width="200" height="200"><defs><style type="text/css"></style></defs><path d="M582.1 565.3c-2.1 0-23.5-10.7-10.7-49.1 32-34.2 57.7-87.6 57.7-141 0-81.2-53.4-123.9-117.5-123.9S394.1 294 394.1 375.2c0 53.4 25.6 106.8 57.7 141 12.8 34.2-10.7 47-15 47-66.2 23.5-143.2 68.4-143.2 111.1v17.1c-2.1 59.8 111.1 74.8 217.9 74.8 104.7 0 217.9-12.8 217.9-72.6v-17.1c0.1-45-78.9-87.7-147.3-111.2z m-70.5 394c-60.4 0-119.1-11.8-174.3-35.2-53.3-22.6-101.2-54.8-142.3-96-41.1-41.1-73.4-89-96-142.3C75.6 630.7 63.8 572 63.8 511.6c0-60.4 11.8-119.1 35.2-174.3 22.6-53.3 54.8-101.2 96-142.3 41.1-41.1 89-73.4 142.3-96 55.2-23.4 113.9-35.2 174.3-35.2 60.4 0 119.1 11.8 174.3 35.2 53.3 22.6 101.2 54.8 142.3 96 41.1 41.1 73.4 89 96 142.3 23.4 55.2 35.2 113.9 35.2 174.3 0 60.4-11.8 119.1-35.2 174.3-22.6 53.3-54.8 101.2-96 142.3-41.1 41.1-89 73.4-142.3 96-55.3 23.3-113.9 35.1-174.3 35.1z m0-859.4c-227 0-411.7 184.7-411.7 411.7s184.7 411.7 411.7 411.7 411.7-184.7 411.7-411.7S738.6 99.9 511.6 99.9z" fill="#B9B9B9" p-id="1805"></path></svg>