<?xml version="1.0" standalone="no"?><!DOCTYPE svg PUBLIC "-//W3C//DTD SVG 1.1//EN" "http://www.w3.org/Graphics/SVG/1.1/DTD/svg11.dtd"><svg t="1545180921819" class="icon" style="" viewBox="0 0 1024 1024" version="1.1" xmlns="http://www.w3.org/2000/svg" p-id="6761" xmlns:xlink="http://www.w3.org/1999/xlink" width="25" height="25"><defs><style type="text/css"></style></defs><path d="M921.6 883.2H102.4c-19.456 0-34.816-6.656-46.592-19.968-13.312-14.848-18.944-29.696-18.944-47.104 0-18.944 6.656-34.816 19.456-47.616 12.8-12.8 28.672-19.456 46.08-19.456h820.224c17.92 0 34.304 7.168 45.056 19.968 13.312 14.848 18.944 29.696 18.944 47.104 0 18.944-6.656 34.816-19.456 47.616-12.288 12.8-28.16 19.456-45.568 19.456zM102.4 764.416c-13.312 0-25.088 5.12-34.816 14.848-9.728 9.728-14.848 22.016-14.848 36.352 0 13.824 4.608 24.576 15.36 36.864 8.704 9.728 19.968 14.336 34.816 14.336H921.6c13.312 0 25.088-5.12 34.816-14.848 9.728-9.728 14.848-22.016 14.848-36.352 0-13.824-4.608-24.576-15.36-36.864-7.68-9.216-19.968-14.336-33.28-14.336H102.4z m819.2-57.344H102.4c-15.872 0-30.208-6.656-44.544-20.992-12.8-12.8-19.456-28.672-19.456-46.08 0-8.704 1.536-17.408 5.12-26.112 3.072-7.68 7.68-14.848 14.336-21.504 6.144-6.144 13.312-11.264 21.504-14.336 6.144-3.072 14.336-5.12 22.528-5.12 12.288-77.824 44.544-146.944 95.744-206.336 53.248-60.928 117.76-102.912 190.976-125.44-0.512-5.12-0.512-9.216-0.512-11.776 0-32.768 11.776-61.952 36.352-88.064 22.528-24.576 52.736-36.864 88.576-36.864 32.768 0 61.952 11.776 88.064 36.352 24.576 22.528 36.864 52.736 36.864 88.576 0 2.56 0 6.656-0.512 11.776 76.288 24.576 138.752 65.536 190.464 124.928 52.736 62.464 84.48 130.048 96.256 206.336 16.384 0.512 31.744 7.168 44.032 19.456 13.312 15.36 19.456 30.208 19.456 47.616 0 18.944-6.656 34.816-19.456 47.616-13.312 13.312-29.184 19.968-46.592 19.968zM103.936 588.288c-6.656 0-13.312 1.536-18.432 4.096-6.656 2.56-11.776 6.144-16.896 11.264-4.608 4.608-8.192 10.24-10.752 15.872-2.56 6.656-4.096 13.824-4.096 20.48 0 13.312 5.12 25.088 14.848 34.816 11.264 11.264 22.016 16.384 33.28 16.384H921.6c13.312 0 25.088-5.12 34.816-14.848 9.728-9.728 14.848-22.016 14.848-36.352 0-13.824-4.608-24.576-15.36-36.864-9.216-9.216-21.504-14.336-34.816-14.336h-11.264l-1.024-6.656c-10.24-76.288-40.96-142.848-93.184-204.8-51.2-58.88-113.664-98.816-189.44-122.368l-5.632-1.536v-9.216c1.536-5.12 1.536-10.752 1.536-13.824 0-31.232-10.752-57.344-31.744-76.8-23.552-22.016-48.128-32.256-77.312-32.256-31.232 0-57.344 10.752-76.8 31.744-22.016 23.552-32.256 48.128-32.256 77.312 0 3.072 0 8.704 1.536 15.872l1.536 7.168-7.68 1.024c-73.216 20.992-137.216 61.952-189.44 122.368-51.2 58.368-82.432 127.488-93.184 204.8l-1.024 6.656h-11.776z m187.392-51.2c-9.728 0-19.456-4.096-25.6-10.24-6.144-6.144-9.728-15.36-10.24-24.576-2.048-7.68 1.024-14.336 4.096-20.48l0.512-0.512c18.432-30.72 41.472-56.32 73.728-81.408 27.136-21.504 60.928-37.888 99.328-49.664l1.024-0.512c1.024-0.512 2.56-1.024 4.608-1.536 1.536-1.024 3.584-1.536 6.144-1.536 10.24 0 19.968 4.096 27.136 11.776 8.192 8.192 11.776 16.384 11.776 27.136 0 6.144-2.048 11.776-3.584 16.384-2.56 7.68-8.192 11.776-12.288 14.848-4.608 3.072-8.704 5.632-15.36 6.144-19.456 6.656-35.328 12.288-50.688 20.992-16.384 9.728-31.232 20.48-44.032 31.744-12.288 11.264-23.04 24.064-32.768 40.448-1.536 3.072-3.584 6.656-7.168 10.752-4.096 4.096-7.68 6.144-11.264 7.68-5.632 2.56-11.776 2.56-15.36 2.56z m-17.92-47.616c-3.072 5.632-3.072 7.68-2.56 9.216l0.512 2.56c0 5.632 2.048 11.264 5.632 14.848 3.072 3.072 9.216 5.632 14.848 5.632 1.536 0 6.144 0 7.68-0.512 3.072-1.536 5.12-2.56 7.168-4.608 2.048-2.048 3.584-4.608 4.608-7.168 10.752-17.92 22.528-32.256 36.352-44.544 13.312-11.776 28.672-23.04 46.592-33.792 16.896-9.216 33.792-15.36 54.784-22.528l2.56-0.512c2.56 0 3.584-0.512 8.192-3.584 4.096-3.072 5.632-4.608 6.144-6.656 1.536-4.096 2.56-8.192 2.56-11.776 0-6.656-2.048-11.264-7.168-16.384-4.096-4.096-9.728-6.656-15.36-7.168-1.024 0.512-2.56 1.024-4.608 1.536-1.024 0.512-2.56 1.024-4.096 1.536-37.376 10.752-68.608 26.624-94.208 46.592-30.208 24.064-52.736 48.128-69.632 77.312z m297.984-245.248l-4.096-0.512c-9.216-1.536-17.92-3.072-28.16-3.072-5.12 0-9.728-0.512-14.848-1.024-13.824-1.024-27.136-1.536-39.936 0.512-8.704 0-16.896 1.024-25.6 2.56l-8.192 1.536-6.656-6.656v-6.144c0-17.408 6.656-33.28 19.456-46.08 14.848-13.312 30.72-19.456 49.152-19.456 17.408 0 33.28 6.656 46.08 19.456s19.456 28.672 19.456 46.08v6.144l-6.656 6.656z m-58.368-62.976c-14.848 0-26.624 4.608-38.4 15.36-8.192 8.192-13.312 18.944-14.336 30.72 8.192-1.024 15.36-2.048 23.04-2.048 13.312-2.56 28.16-2.048 43.008-0.512 12.8 1.024 25.6 1.024 36.352 2.56-1.024-11.776-6.144-22.016-14.848-30.72-9.728-10.24-22.016-15.36-34.816-15.36z" fill="#da720f" p-id="6762"></path></svg>