<?xml version="1.0" standalone="no"?><!DOCTYPE svg PUBLIC "-//W3C//DTD SVG 1.1//EN" "http://www.w3.org/Graphics/SVG/1.1/DTD/svg11.dtd"><svg t="1554273809322" class="icon" style="" viewBox="0 0 1024 1024" version="1.1" xmlns="http://www.w3.org/2000/svg" p-id="1717" xmlns:xlink="http://www.w3.org/1999/xlink" width="200" height="200"><defs><style type="text/css"></style></defs><path d="M512.1 950.2l-32.6-38c-6.9-8-170.4-198.4-215-258.3-62.4-83.9-94-164.2-94-238.8 0-110.7 54-214.9 144.5-278.9C407.2 71 523.6 56 634.5 95.3c43.3 15.3 83.5 42.9 116.3 79.7 134.3 150.7 136.9 316.6 7.7 479.9-51.1 64.5-207.4 249.2-214 257l-32.4 38.3z m-0.1-790.9c-52.9 0-104 15.8-147.7 46.6-67.9 48-108.4 126.2-108.4 209.2 0 55.8 26 119 77.1 187.9 31.1 41.8 127.5 155.6 178.7 215.5 49.9-59.2 143.6-170.8 179.9-216.6 103-130.1 101.5-251.2-4.5-370.2-23.3-26.1-51.3-45.5-81-56-31.3-11-63-16.4-94.1-16.4z" p-id="1718"></path><path d="M512 564.4c-82.3 0-149.3-67-149.3-149.3s67-149.3 149.3-149.3 149.3 67 149.3 149.3-67 149.3-149.3 149.3z m0-213.3c-35.3 0-64 28.7-64 64s28.7 64 64 64 64-28.7 64-64-28.7-64-64-64z" p-id="1719"></path></svg>