<?xml version="1.0" standalone="no"?><!DOCTYPE svg PUBLIC "-//W3C//DTD SVG 1.1//EN" "http://www.w3.org/Graphics/SVG/1.1/DTD/svg11.dtd"><svg t="1554277208791" class="icon" style="" viewBox="0 0 1024 1024" version="1.1" xmlns="http://www.w3.org/2000/svg" p-id="12606" xmlns:xlink="http://www.w3.org/1999/xlink" width="200" height="200"><defs><style type="text/css"></style></defs><path d="M977.454545 558.545455h-25.69309C930.071273 765.649455 765.649455 930.234182 558.545455 951.901091V977.454545a46.545455 46.545455 0 1 1-93.09091 0v-25.553454C258.327273 930.257455 93.882182 765.672727 72.192 558.545455H46.545455a46.545455 46.545455 0 1 1 0-93.09091h25.623272C93.858909 258.280727 258.304 93.672727 465.454545 72.029091V46.545455a46.545455 46.545455 0 1 1 93.09091 0v25.483636c207.127273 21.690182 371.549091 186.274909 393.216 393.425454H977.454545a46.545455 46.545455 0 1 1 0 93.09091zM558.545455 166.353455V232.727273a46.545455 46.545455 0 1 1-93.09091 0V166.353455C309.992727 187.136 187.136 310.039273 166.353455 465.454545H232.727273a46.545455 46.545455 0 1 1 0 93.09091H166.353455C187.136 713.960727 309.992727 836.864 465.454545 857.623273V791.272727a46.545455 46.545455 0 1 1 93.09091 0v66.350546c155.461818-20.759273 278.295273-143.662545 299.10109-299.077818H791.272727a46.545455 46.545455 0 1 1 0-93.09091h66.373818C836.864 310.039273 714.007273 187.136 558.545455 166.353455zM512 558.545455a46.545455 46.545455 0 1 1-0.023273-93.067637A46.545455 46.545455 0 0 1 512 558.545455z" p-id="12607" fill="#FF4356"></path></svg>